<svg width="743" height="404" viewBox="0 0 743 404" fill="none" xmlns="http://www.w3.org/2000/svg">
<path d="M501.747 250.712C559.873 211.829 598.833 204.299 691.095 214.101C646.412 172.845 512.143 189.92 455.73 205.851C490.157 191.199 510.775 185.802 546.185 179.969C665.6 169.469 726.169 197.68 716.683 262.358C775.896 195.904 733.087 68.9887 585.029 70.0324L574.732 92.1788V65.6818C495.902 11.9113 440.298 -6.80007 351.413 2.13582C250.01 19.6744 199.456 54.2324 142.716 134.011C180.32 124.276 201.852 121.493 240.221 122.938C146.149 159.8 95.0336 201.669 58.1933 256.32C140.647 217.143 178.058 218.92 213.769 217.06C92.1827 266.484 32.5964 319.867 0 370.007C85.5025 326.167 135.96 311.872 217.32 309.056C164.397 327.516 134.165 345.982 83.7038 380.555C112.411 378.887 147.242 380.196 204.541 394.143C271.335 406.534 304.335 407.16 337.187 396.084C385.919 381.292 408.43 364.504 439.109 326.216C458.335 295.609 472.272 277.138 501.747 250.712Z" fill="url(#paint0_linear_20_11)"/>
<defs>
<linearGradient id="paint0_linear_20_11" x1="507.567" y1="443.366" x2="-290.929" y2="500.124" gradientUnits="userSpaceOnUse">
<stop stop-color="white"/>
<stop offset="1" stop-color="#E2A730"/>
</linearGradient>
</defs>
</svg>
